<svg width="121" height="114" viewBox="0 0 121 114" fill="none" xmlns="http://www.w3.org/2000/svg">
<circle cx="105.75" cy="15.25" r="15.25" fill="white"/>
<rect x="26" width="81.5" height="30.5" rx="2" fill="white"/>
<path fill-rule="evenodd" clip-rule="evenodd" d="M30 60V59.9979C29.9511 59.9987 29.9021 59.9993 29.853 59.9996C29.8775 59.9998 29.902 59.9999 29.9265 59.9999C29.951 60 29.9755 60 30 60ZM30 30.5021C29.9168 30.5007 29.8335 30.5 29.75 30.5C21.6038 30.5 15 37.1038 15 45.25C15 53.2001 21.2896 59.6811 29.1643 59.9886C12.9822 59.546 0 46.2891 0 30C0 13.4315 13.4315 0 30 0C46.5685 0 60 13.4315 60 30C60 30.167 59.9986 30.3337 59.9959 30.5H30V30.5021Z" fill="white"/>
<circle cx="15.25" cy="98.75" r="15.25" transform="rotate(180 15.25 98.75)" fill="white"/>
<rect x="95" y="114" width="81.5" height="30.5" rx="2" transform="rotate(180 95 114)" fill="white"/>
<path fill-rule="evenodd" clip-rule="evenodd" d="M91 54V54.0021C91.0489 54.0013 91.0979 54.0007 91.147 54.0004C91.1225 54.0002 91.098 54.0001 91.0735 54.0001C91.049 54 91.0245 54 91 54ZM91 83.4979C91.0832 83.4993 91.1665 83.5 91.25 83.5C99.3962 83.5 106 76.8962 106 68.75C106 60.7999 99.7104 54.3189 91.8357 54.0114C108.018 54.454 121 67.7109 121 84C121 100.569 107.569 114 91 114C74.4315 114 61 100.569 61 84C61 83.833 61.0014 83.6663 61.0041 83.5H91V83.4979Z" fill="white"/>
</svg>
